<mxfile host="Electron" agent="Mozilla/5.0 (X11; Linux x86_64) AppleWebKit/537.36 (KHTML, like Gecko) draw.io/24.7.8 Chrome/128.0.6613.36 Electron/32.0.1 Safari/537.36" version="24.7.8">
  <diagram id="C5RBs43oDa-KdzZeNtuy" name="Page-1">
    <mxGraphModel dx="1434" dy="879" grid="1" gridSize="10" guides="1" tooltips="1" connect="1" arrows="1" fold="1" page="1" pageScale="1" pageWidth="827" pageHeight="1169" math="0" shadow="0">
      <root>
        <mxCell id="WIyWlLk6GJQsqaUBKTNV-0" />
        <mxCell id="WIyWlLk6GJQsqaUBKTNV-1" parent="WIyWlLk6GJQsqaUBKTNV-0" />
        <mxCell id="oEOvBtnqVhMtwNFOPzGN-0" value="&lt;h2&gt;&lt;font style=&quot;font-size: 17px;&quot;&gt;Бизнес-процесс «заказ пиццы»&amp;nbsp;в нотации UML&lt;/font&gt;&lt;/h2&gt;" style="text;whiteSpace=wrap;html=1;" parent="WIyWlLk6GJQsqaUBKTNV-1" vertex="1">
          <mxGeometry x="20" width="550" height="50" as="geometry" />
        </mxCell>
        <mxCell id="A-277vTpUla81I5xav2S-0" value="Клиент" style="swimlane;" vertex="1" parent="WIyWlLk6GJQsqaUBKTNV-1">
          <mxGeometry x="14" y="60" width="200" height="700" as="geometry" />
        </mxCell>
        <mxCell id="A-277vTpUla81I5xav2S-1" value="Менеджер" style="swimlane;" vertex="1" parent="WIyWlLk6GJQsqaUBKTNV-1">
          <mxGeometry x="214" y="60" width="200" height="700" as="geometry" />
        </mxCell>
        <mxCell id="A-277vTpUla81I5xav2S-2" value="Шеф-повар" style="swimlane;" vertex="1" parent="WIyWlLk6GJQsqaUBKTNV-1">
          <mxGeometry x="414" y="60" width="200" height="700" as="geometry" />
        </mxCell>
        <mxCell id="A-277vTpUla81I5xav2S-3" value="Курьер" style="swimlane;" vertex="1" parent="WIyWlLk6GJQsqaUBKTNV-1">
          <mxGeometry x="614" y="60" width="200" height="700" as="geometry" />
        </mxCell>
      </root>
    </mxGraphModel>
  </diagram>
</mxfile>
